<?xml version="1.0" encoding="utf-8"?>
<!-- Generator: Adobe Illustrator 16.0.0, SVG Export Plug-In . SVG Version: 6.00 Build 0)  -->
<svg version="1.2" baseProfile="tiny" id="Layer_1" xmlns="http://www.w3.org/2000/svg" xmlns:xlink="http://www.w3.org/1999/xlink"
	 x="0px" y="0px"  viewBox="0 0 3000 3000" xml:space="preserve">
<g>
	<path fill="#1279BD" d="M5.698,1581.323l49.666-29.782c16.138,32.276,45.941,50.895,80.705,50.895
		c29.79,0,52.145-11.178,52.145-33.52c0-22.35-21.105-32.284-59.592-43.455c-54.625-14.895-110.508-28.553-110.508-90.632
		c0-55.869,43.461-88.159,106.771-88.159c60.836,0,96.843,29.803,117.956,60.843l-45.941,34.75
		c-16.138-24.822-44.691-42.218-73.258-42.218c-27.316,0-43.461,12.436-43.461,29.796c0,23.585,22.356,32.283,60.843,43.461
		c52.145,13.658,108.021,31.047,108.021,91.876c0,47.192-36.007,90.633-119.206,90.633
		C67.785,1653.337,28.047,1623.541,5.698,1581.323z M262.714,1648.37l105.534-297.983h62.087l105.534,297.983h-65.797
		l-22.362-65.804H347.143l-22.355,65.804H262.714z M362.045,1534.138h69.526l-33.52-100.56h-1.251L362.045,1534.138z
		 M568.152,1648.37v-296.74h108.021c63.322,0,121.672,17.389,121.672,95.593c0,79.482-62.087,96.843-121.672,96.843h-42.226V1649.6
		h-65.796V1648.37z M632.719,1491.928h44.698c40.974,0,55.876-16.139,55.876-44.691c0-27.323-14.902-43.461-55.876-43.461h-44.698
		V1491.928z M925.742,1499.375c0-103.062,59.6-153.963,135.345-153.963c74.501,0,108.021,39.717,120.442,93.127l-62.08,18.604
		c-9.934-33.52-23.585-57.112-58.362-57.112c-44.69,0-69.527,38.494-69.527,99.345c0,62.086,24.829,101.803,69.527,101.803
		c34.763,0,52.152-22.362,62.087-62.086l60.828,13.65c-14.895,59.586-49.65,101.817-124.158,101.817
		C982.861,1653.337,925.742,1603.672,925.742,1499.375z M1207.595,1541.593c0-83.192,57.112-111.745,109.265-111.745
		c52.146,0,109.265,27.316,109.265,111.745c0,83.185-57.119,110.508-109.265,110.508
		C1264.707,1652.094,1207.595,1623.541,1207.595,1541.593z M1361.551,1541.593c0-36.008-12.422-64.56-44.691-64.56
		c-31.039,0-44.69,26.072-44.69,64.56c0,36.007,12.421,65.796,44.69,65.796C1346.656,1607.389,1361.551,1580.079,1361.551,1541.593z
		 M1457.164,1647.126v-213.548h64.56v33.521c12.422-17.382,36.007-38.494,73.265-38.494c36.007,0,62.08,18.611,62.08,62.086v156.443
		h-64.553v-135.345c0-19.861-7.469-29.789-24.837-29.789c-17.389,0-32.276,8.69-45.941,21.105v144.028h-64.573V1647.126z
		 M1689.352,1541.593c0-85.673,60.814-111.745,108.021-111.745c58.35,0,80.685,31.04,93.12,65.796l-54.625,18.619
		c-8.698-27.316-21.12-36.008-39.738-36.008c-26.072,0-42.211,22.356-42.211,64.553c0,38.494,12.436,65.811,42.211,65.811
		c17.402,0,32.305-8.684,42.238-38.494l53.383,18.625c-13.651,33.521-39.725,64.553-96.837,64.553
		C1743.983,1652.094,1689.352,1623.541,1689.352,1541.593z M1924.019,1590.021v-156.45h64.56v136.566
		c0,18.619,7.455,29.804,24.836,29.804c17.375,0,32.276-8.69,45.941-21.119v-145.265h64.553v213.555h-64.553v-33.52
		c-12.436,16.138-36.007,37.243-73.278,37.243C1950.092,1652.094,1924.019,1633.476,1924.019,1590.021z M2171.107,1647.126v-213.548
		h64.553v36.007l0,0c11.186-18.618,32.291-39.73,72.014-39.73h2.488l-1.251,57.12c-2.487,0-12.422-1.251-17.375-1.251
		c-26.087,0-44.705,13.651-57.126,29.796v132.857h-63.331L2171.107,1647.126L2171.107,1647.126z"/>
	<g>
		<path fill="#F0AB00" d="M2713.686,1582.566c-44.69,0-81.948-37.265-81.948-81.955c0-44.691,36.007-81.941,81.948-81.941
			c22.356,0,43.462,8.69,57.127,23.578l42.211-42.218c-26.072-26.072-60.844-40.975-100.56-40.975
			c-78.231,0-141.541,63.338-141.541,141.541c0,78.211,63.33,141.541,141.541,141.541c38.494,0,74.501-16.138,100.56-40.967
			l-42.211-42.218C2755.911,1572.632,2736.042,1582.566,2713.686,1582.566"/>
		<path fill="#F0AB00" d="M2832.893,1464.604c-19.869,0-36.008,16.152-36.008,36.007c0,19.876,16.139,36.014,36.008,36.014
			c19.854,0,36.007-16.138,36.007-36.014C2868.899,1480.757,2852.747,1464.604,2832.893,1464.604"/>
		<path fill="#F0AB00" d="M2459.164,1767.569h535.139v-535.139h-535.139V1767.569z M2518.75,1706.726v-414.702h414.695v192.464
			v29.789v192.464L2518.75,1706.726L2518.75,1706.726z"/>
	</g>
</g>
</svg>
