<?xml version="1.0" standalone="no"?>
<!DOCTYPE svg PUBLIC "-//W3C//DTD SVG 20010904//EN"
 "http://www.w3.org/TR/2001/REC-SVG-20010904/DTD/svg10.dtd">
<svg version="1.0" xmlns="http://www.w3.org/2000/svg"
 width="563.000000pt" height="563.000000pt" viewBox="0 0 563.000000 563.000000"
 preserveAspectRatio="xMidYMid meet">
<metadata>
Created by potrace 1.11, written by Peter Selinger 2001-2013
</metadata>
<g transform="translate(0.000000,563.000000) scale(0.100000,-0.100000)"
fill="#000000" stroke="none">
<path d="M2892 5608 c-7 -7 -12 -15 -12 -19 0 -4 -29 -57 -65 -118 -36 -60
-65 -113 -65 -118 0 -4 80 -54 178 -109 494 -283 2038 -1177 2046 -1184 5 -5
9 -576 10 -1294 l1 -1286 23 -1 c29 -1 268 -1 285 0 11 1 13 233 11 1284 -1
705 -3 1327 -3 1382 l-1 100 -200 115 c-111 63 -215 123 -233 134 -251 145
-481 278 -517 298 -25 14 -126 73 -225 130 -242 141 -502 291 -545 315 -39 23
-450 260 -578 334 -92 54 -93 54 -110 37z"/>
<path d="M2143 5312 c-74 -35 -92 -140 -35 -202 80 -87 222 -29 222 90 0 91
-103 153 -187 112z"/>
<path d="M2580 4995 c-69 -40 -163 -96 -210 -122 -47 -27 -260 -151 -475 -275
-214 -124 -545 -316 -735 -425 l-345 -200 0 -1102 0 -1101 170 0 170 0 0 1003
-1 1004 344 199 c188 109 357 207 375 218 18 10 148 85 290 168 142 82 273
157 290 167 84 48 264 152 277 161 8 5 48 28 88 51 l73 41 -20 31 c-10 18 -28
49 -40 70 -76 135 -109 187 -119 186 -4 0 -63 -34 -132 -74z"/>
<path d="M1597 4995 c-42 -15 -61 -34 -77 -81 -25 -74 17 -144 96 -162 143
-32 215 168 86 237 -37 19 -64 21 -105 6z"/>
<path d="M998 4668 c-110 -64 -56 -228 80 -242 31 -4 68 10 98 36 64 56 36
177 -49 213 -49 20 -85 19 -129 -7z"/>
<path d="M324 2779 c2 -1188 4 -1381 17 -1393 7 -7 165 -100 349 -206 184
-106 610 -351 945 -545 336 -193 717 -414 848 -489 132 -76 240 -136 241 -134
2 2 38 63 81 137 61 105 75 136 64 142 -21 14 -269 158 -314 183 -22 13 -155
90 -295 171 -140 81 -280 161 -310 178 -30 16 -59 33 -65 37 -8 6 -247 145
-375 217 -19 11 -75 44 -125 73 -49 29 -110 64 -135 78 -92 52 -595 344 -600
348 -2 3 -5 571 -6 1262 -2 691 -3 1272 -3 1289 l-1 33 -159 -1 -158 -2 1
-1378z"/>
<path d="M4474 2866 l1 -1004 -50 -30 c-27 -16 -410 -238 -850 -492 -440 -255
-808 -468 -817 -475 -16 -11 -11 -23 57 -140 41 -70 75 -131 75 -135 0 -3 5
-11 11 -17 7 -7 66 22 202 102 106 61 215 125 244 141 29 16 137 78 240 138
103 61 271 158 373 216 102 59 316 183 475 275 160 93 299 173 310 179 11 6
31 19 45 29 l25 17 0 1100 0 1100 -171 0 -170 0 0 -1004z"/>
<path d="M1764 2801 l1 -926 147 -3 148 -3 2 381 3 381 84 -198 c46 -109 92
-216 102 -238 10 -22 44 -103 77 -180 l59 -140 161 -3 c91 -1 162 1 162 6 0 8
-38 96 -110 257 -119 265 -300 686 -300 697 0 11 97 245 154 373 77 171 216
507 212 514 -3 5 -76 8 -163 7 l-157 -1 -47 -120 c-26 -66 -91 -228 -143 -360
l-95 -240 0 361 -1 361 -148 0 -148 0 0 -926z"/>
<path d="M3044 2798 l0 -928 148 0 148 0 0 330 0 330 28 1 c15 0 119 2 232 3
113 2 217 3 232 4 36 3 94 55 108 98 17 49 17 947 0 989 -14 38 -47 74 -80 88
-16 7 -161 11 -421 12 l-395 2 0 -929z m607 657 c1 -16 1 -587 0 -627 l-1 -38
-155 0 -155 0 0 333 c0 184 2 336 4 338 10 10 306 4 307 -6z"/>
<path d="M4585 1183 c-35 -9 -63 -33 -79 -68 -21 -44 -20 -83 4 -122 70 -115
240 -70 240 63 0 88 -80 149 -165 127z"/>
<path d="M4030 860 c-45 -13 -69 -34 -85 -74 -44 -109 63 -213 172 -167 83 35
98 169 24 220 -32 22 -78 31 -111 21z"/>
<path d="M3422 533 c-61 -30 -81 -116 -42 -181 27 -44 98 -76 148 -67 43 8
102 63 103 97 4 76 -19 121 -73 149 -45 23 -92 24 -136 2z"/>
</g>
</svg>
